<svg width="16" height="16" viewBox="0 0 16 16"
    xmlns="http://www.w3.org/2000/svg">
    <circle cx="10" cy="6.5" r="4.25" stroke="black" stroke-width="1.5"/>
    <path d="M5.20985 5.06207C2.82387 5.44087 1 7.50743 1 9.99999C1 12.7614 3.23858 15 6 15C8.2616 15 10.1725 13.4985 10.7902 11.4379C10.5328 11.4788 10.2689 11.5 10 11.5C9.72531 11.5 9.45579 11.4778 9.19314 11.4352C8.64515 12.6525 7.42155 13.5 6 13.5C4.067 13.5 2.5 11.933 2.5 9.99999C2.5 8.41373 3.55525 7.07394 5.00204 6.64432C5.00068 6.59638 5 6.54826 5 6.49999C5 6.00016 5.07334 5.51747 5.20985 5.06207Z" fill="#7E7E7E"/>
</svg>
