<svg width="165" height="70" viewBox="0 0 165 70" fill="none" xmlns="http://www.w3.org/2000/svg">
<path d="M14.5276 34.3455H14.4289C13.8241 34.3455 12.1085 34.2219 11.5654 33.0606C11.3185 32.307 10.8742 31.6398 10.2817 31.1086C8.1588 28.9713 4.71519 28.9589 2.57991 31.0839C0.444627 33.2089 0.432284 36.6558 2.55523 38.7931C4.67817 40.9304 8.12177 40.9428 10.2571 38.8178C10.8001 38.2742 11.2321 37.6194 11.5037 36.9028C12.1085 35.6798 13.8735 35.5562 14.4906 35.5562H14.5276C14.4659 35.1609 14.4659 34.7532 14.5276 34.3455Z" fill="#0A0000"/>
<path d="M37.8182 59.3386C36.658 58.6714 36.5346 57.0159 36.5346 56.4106V56.2994C36.1026 56.3611 35.6706 56.3611 35.251 56.287V56.46C35.251 57.1271 35.0658 58.9556 33.7945 59.4498C33.6834 59.4992 33.5847 59.561 33.486 59.6351C32.9676 59.9069 32.4985 60.2528 32.0912 60.6729C29.9683 62.7978 29.9683 66.2324 32.0912 68.3573C34.2142 70.4823 37.6454 70.4823 39.7684 68.3573C41.8913 66.2324 41.8913 62.7978 39.7684 60.6729C39.25 60.0675 38.5711 59.598 37.8182 59.3386Z" fill="#1A1011"/>
<path d="M69.2427 31.1209C67.1321 28.996 63.7009 28.996 61.5779 31.1086C61.0348 31.6522 60.6152 32.2946 60.3436 33.0112C59.6771 34.2343 57.9739 34.3578 57.3567 34.3578H57.332C57.3937 34.7655 57.3937 35.1732 57.332 35.5809H57.4308C58.0356 35.5809 59.7512 35.7045 60.2943 36.8658C60.5411 37.6194 60.9855 38.2865 61.5779 38.8178C63.6762 40.9428 67.0951 40.9551 69.218 38.8549C69.2304 38.8425 69.2427 38.8301 69.2551 38.8178C71.3163 36.6681 71.3163 33.2706 69.2427 31.1209Z" fill="#2A2022"/>
<path d="M32.153 1.6061C30.0301 3.70636 30.0177 7.12855 32.116 9.25352C32.1283 9.26588 32.1407 9.27823 32.153 9.29059C32.7578 9.89596 33.4367 10.2666 34.1032 10.5755C35.2634 11.2426 35.3868 12.8981 35.3868 13.5035V13.5899C35.8188 13.5282 36.2508 13.5282 36.6705 13.6023V13.4417C36.6705 12.7745 36.8556 10.9461 38.1269 10.4519C38.238 10.4025 38.3367 10.3407 38.4355 10.2666C38.9538 9.99479 39.4229 9.64887 39.8302 9.22881C41.9531 7.12855 41.9655 3.70636 39.8672 1.58139C39.8549 1.56904 39.8425 1.55668 39.8302 1.54433C37.6949 -0.531224 34.2266 -0.531224 32.153 1.6061Z" fill="#3A3033"/>
<path d="M24.4141 23.4365C22.2912 25.5614 18.8599 25.5614 16.737 23.4365C14.614 21.3115 14.614 17.8769 16.737 15.752C18.8599 13.627 22.2912 13.627 24.4141 15.752C26.5494 17.8275 26.5494 21.2991 24.4141 23.4365Z" fill="#4A4044"/>
<path d="M47.495 46.4776C49.6179 44.3526 53.0492 44.3526 55.1721 46.4776C57.295 48.6025 57.295 52.0371 55.1721 54.1621C53.0492 56.287 49.6179 56.287 47.495 54.1621C45.372 52.0618 45.3597 48.6396 47.4579 46.5146C47.4703 46.5023 47.4826 46.4899 47.495 46.4776Z" fill="#0A0000"/>
<path d="M47.4949 15.6902C49.6179 13.5652 53.0491 13.5652 55.1721 15.6902C57.295 17.8152 57.295 21.2497 55.1721 23.3747C53.0491 25.4997 49.6179 25.4997 47.4949 23.3747C45.372 21.2991 45.372 17.8275 47.4949 15.6902Z" fill="#5A5055"/>
<path d="M16.737 46.4776C18.86 44.3526 22.2912 44.3526 24.4142 46.4776C26.5371 48.6025 26.5371 52.0371 24.4142 54.1621C22.2912 56.287 18.86 56.287 16.737 54.1621C14.6141 52.0618 14.6017 48.6396 16.7 46.5146C16.7123 46.5023 16.7247 46.4899 16.737 46.4776Z" fill="#3A3033"/>
<path d="M21.563 37.8789C19.9461 39.4973 17.3294 39.4973 15.7125 37.8789C14.0957 36.2604 14.0957 33.6413 15.7125 32.0228C17.3294 30.4044 19.9461 30.4044 21.563 32.0228C23.1922 33.6042 23.1922 36.2604 21.563 37.8789Z" fill="#6A6066"/>
<path d="M38.9414 20.6443C37.3245 22.2628 34.6832 22.2628 33.0663 20.6443C31.4494 19.0259 31.4494 16.3821 33.0663 14.7636C34.6832 13.1452 37.3245 13.1452 38.9414 14.7636C40.5583 16.3821 40.5707 19.0012 38.9538 20.632L38.9414 20.6443Z" fill="#7A7077"/>
<path d="M56.1842 37.9036C54.5673 39.522 51.926 39.522 50.3091 37.9036C48.6922 36.2851 48.6922 33.6413 50.3091 32.0228C51.926 30.4044 54.5673 30.4044 56.1842 32.0228C57.8135 33.6042 57.8135 36.2604 56.1842 37.9036Z" fill="#1A1011"/>
<path d="M38.8798 55.1257C37.2629 56.7441 34.6216 56.7441 33.0047 55.1257C31.3878 53.5073 31.3878 50.8634 33.0047 49.245C34.6216 47.6265 37.2629 47.6265 38.8798 49.245C40.4967 50.8634 40.509 53.4826 38.8921 55.1133L38.8798 55.1257Z" fill="#5A5055"/>
<path d="M32.1529 30.2067C31.7703 29.8237 31.0174 28.823 30.9804 27.7976C30.6841 28.786 29.8695 29.5272 28.8574 29.7249C30.0423 29.7249 31.0791 30.4909 31.4247 30.8862L31.758 31.2198C31.869 31.0839 31.9801 30.9603 32.1035 30.8368C32.2146 30.7256 32.3381 30.6144 32.4491 30.5156C32.3381 30.4291 32.2393 30.3303 32.1529 30.2067Z" fill="#8A8088"/>
<path d="M40.978 27.4517C41.0644 28.7118 40.2375 29.8361 39.8178 30.1944L39.5339 30.4785C39.6574 30.5897 39.7808 30.6885 39.9042 30.8121C40.0276 30.9356 40.1511 31.0715 40.2622 31.2198L40.4967 30.985C40.9287 30.5526 42.1382 29.6384 43.2985 29.8237H43.6194C42.2864 29.7743 41.1755 28.7736 40.978 27.4517Z" fill="#6A6066"/>
<path d="M40.9409 41.8693C41.2371 40.8439 42.0764 40.0779 43.1256 39.8926C41.8913 39.9544 40.7928 39.0896 40.4349 38.6695L40.1633 38.3977C40.0769 38.4966 39.9905 38.5954 39.9041 38.6819C39.7807 38.8054 39.6449 38.929 39.5092 39.0402C39.5832 39.1637 39.6696 39.2873 39.7684 39.3984C40.151 39.7938 40.9286 40.8192 40.9409 41.8693Z" fill="#1A1011"/>
<path d="M32.0913 38.6942C31.9555 38.5583 31.8197 38.4101 31.6963 38.2742L31.4124 38.5583C31.0051 38.966 29.8943 39.7938 28.7834 39.7197C29.9313 39.9791 30.783 40.9428 30.9187 42.1164C30.82 40.8563 31.6593 39.7073 32.0789 39.349L32.4245 39.0031C32.3135 38.9043 32.2024 38.8054 32.0913 38.6942Z" fill="#3A3033"/>
<path d="M31.0791 26.9946C31.0791 28.5265 29.8325 29.7743 28.302 29.7743C26.7715 29.7743 25.5249 28.5265 25.5249 26.9946C25.5249 25.4626 26.7715 24.2148 28.302 24.2148C29.8325 24.2272 31.0791 25.4626 31.0791 26.9946Z" fill="#8A8088"/>
<path d="M46.4952 27.0563C46.4952 28.6006 45.2485 29.8484 43.7057 29.8484C42.1629 29.8484 40.9163 28.6006 40.9163 27.0563C40.9163 25.512 42.1629 24.2642 43.7057 24.2642C45.2485 24.2642 46.4952 25.512 46.4952 27.0563Z" fill="#6A6066"/>
<path d="M46.3841 42.6477C46.3841 44.192 45.1375 45.4398 43.5946 45.4398C42.0518 45.4398 40.8052 44.192 40.8052 42.6477C40.8052 41.1034 42.0518 39.8556 43.5946 39.8556C45.1375 39.8556 46.3841 41.1034 46.3841 42.6477Z" fill="#9A9099"/>
<path d="M30.9681 42.45C30.9681 43.9943 29.7214 45.2421 28.1786 45.2421C26.6358 45.2421 25.3892 43.9943 25.3892 42.45C25.3892 40.9057 26.6358 39.6579 28.1786 39.6579C29.7214 39.6579 30.9681 40.9057 30.9681 42.45Z" fill="black"/>
<path d="M32.0666 30.7874C34.1895 28.613 37.6702 28.5883 39.8425 30.7133C39.8672 30.738 39.8919 30.7627 39.9165 30.7874C42.1012 32.9618 42.1012 36.5075 39.9289 38.6819C39.9289 38.6819 39.9289 38.6819 39.9165 38.6942C37.7936 40.8686 34.313 40.8933 32.1406 38.7684C32.116 38.7437 32.0913 38.719 32.0666 38.6942C29.8819 36.5569 29.8819 32.9741 32.0666 30.7874Z" fill="black"/>
<path d="M93.3357 54.8168L79.5613 20.5332C79.4009 20.249 79.3145 19.9278 79.3145 19.5695C79.3145 18.8406 79.5613 18.2229 80.0674 17.704C80.5734 17.1851 81.2029 16.9257 81.9681 16.9257C83.2888 16.9257 84.1158 17.494 84.4367 18.6182L97.4335 51.8641L110.43 18.6182C110.912 17.494 111.739 16.9257 112.899 16.9257C113.627 16.9257 114.244 17.1851 114.763 17.704C115.281 18.2229 115.54 18.853 115.54 19.5695C115.54 19.8537 115.454 20.1749 115.293 20.5332L101.531 54.8168C100.803 56.67 99.4454 57.5842 97.4335 57.5842C95.471 57.5842 94.101 56.6577 93.3357 54.8168Z" fill="#9A9099"/>
<path d="M121.921 55.1134V19.3966C121.921 18.7171 122.168 18.1364 122.65 17.6546C123.131 17.1727 123.736 16.9257 124.452 16.9257C125.13 16.9257 125.711 17.1727 126.192 17.6546C126.673 18.1364 126.92 18.7171 126.92 19.3966V55.1134C126.92 55.7558 126.673 56.3241 126.192 56.8306C125.711 57.3372 125.13 57.5842 124.452 57.5842C123.723 57.5842 123.131 57.3372 122.65 56.8553C122.168 56.3735 121.921 55.7928 121.921 55.1134Z" fill="#9A9099"/>
<path d="M134.56 51.3205C134.56 50.641 134.795 50.0603 135.251 49.5785C135.708 49.0967 136.288 48.8496 136.967 48.8496C137.609 48.8496 138.115 49.0349 138.473 49.3932C141.682 52.21 145.348 53.6061 149.482 53.6061C152.568 53.6061 154.913 52.9389 156.518 51.617C158.122 50.2951 158.925 48.6519 158.925 46.6752C158.925 45.1927 158.468 43.9819 157.542 43.0553C156.74 42.1782 155.715 41.474 154.469 40.9427C153.222 40.4238 151.321 39.7938 148.754 39.0772C145.582 38.2371 143.2 37.4958 141.595 36.8534C137.3 35.0867 135.153 32.0352 135.153 27.6987C135.153 24.4495 136.473 21.7809 139.127 19.693C141.781 17.6051 145.162 16.555 149.297 16.555C154.024 16.555 158.159 17.9387 161.689 20.7061C162.368 21.1509 162.714 21.7933 162.714 22.6334C162.714 23.2758 162.479 23.8441 162.023 24.326C161.566 24.8078 161.01 25.0549 160.369 25.0549C159.801 25.0549 159.319 24.8696 158.925 24.5113C156.11 22.1886 152.79 21.015 148.939 21.015C146.372 21.015 144.298 21.608 142.706 22.794C141.126 23.98 140.324 25.512 140.324 27.4022C140.324 28.65 140.744 29.6878 141.583 30.5403C142.385 31.3062 143.373 31.9116 144.533 32.344C145.693 32.7888 147.545 33.3447 150.075 34.0366C152.766 34.7655 155.172 35.5685 157.295 36.4457C161.825 38.2495 164.096 41.5234 164.096 46.2675C164.096 49.6403 162.849 52.4571 160.369 54.7056C157.875 56.9541 154.185 58.0784 149.297 58.0784C143.718 58.0784 139.102 56.4476 135.461 53.1984C134.856 52.6301 134.56 52 134.56 51.3205Z" fill="#9A9099"/>
</svg>
